<?xml version="1.0" standalone="no"?>
<!DOCTYPE svg PUBLIC "-//W3C//DTD SVG 20010904//EN"
 "http://www.w3.org/TR/2001/REC-SVG-20010904/DTD/svg10.dtd">
<svg version="1.0" xmlns="http://www.w3.org/2000/svg"
 width="200.000000pt" height="44.000000pt" viewBox="0 0 200.000000 44.000000"
 preserveAspectRatio="xMidYMid meet">

<g transform="translate(0.000000,44.000000) scale(0.100000,-0.100000)"
fill="#000000" stroke="none">
<path d="M44 407 l-39 -35 -3 -186 -3 -186 60 0 60 0 3 157 c3 141 5 158 21
161 16 3 17 -10 17 -157 l0 -161 60 0 60 0 0 148 c0 151 6 179 34 169 14 -5
16 -29 16 -162 l0 -155 61 0 60 0 -3 185 -3 185 -33 32 c-28 28 -39 33 -82 33
-41 0 -54 -5 -77 -27 l-27 -28 -27 26 c-18 18 -42 28 -72 31 -41 5 -48 2 -83
-30z"/>
<path d="M915 417 c-26 -14 -48 -37 -62 -67 -21 -40 -23 -58 -23 -197 l0 -153
60 0 60 0 0 55 0 55 45 0 45 0 0 -55 0 -55 61 0 61 0 -4 163 c-3 150 -5 165
-27 200 -45 73 -140 97 -216 54z m115 -116 c5 -11 10 -31 10 -45 0 -24 -3 -26
-45 -26 -42 0 -45 2 -45 26 0 14 5 34 10 45 14 25 56 25 70 0z"/>
<path d="M580 312 c-112 -50 -134 -197 -41 -275 63 -53 149 -48 214 12 38 36
41 42 44 102 5 74 -15 116 -69 149 -33 20 -115 26 -148 12z m95 -126 c13 -19
14 -29 5 -45 -20 -39 -80 -21 -80 24 0 47 49 60 75 21z"/>
<path d="M1350 241 l0 -59 -41 5 c-67 9 -109 -28 -109 -96 0 -60 77 -109 129
-82 14 8 21 8 21 1 0 -5 11 -10 25 -10 l25 0 0 150 0 150 -25 0 c-24 0 -25 -3
-25 -59z m-20 -122 c9 -16 8 -26 -5 -45 -17 -27 -27 -29 -56 -14 -21 12 -25
50 -7 68 19 19 56 14 68 -9z"/>
<path d="M1670 240 c0 -29 -4 -40 -15 -40 -9 0 -15 -9 -15 -25 0 -16 6 -25 15
-25 11 0 15 -12 15 -49 0 -85 56 -127 111 -82 22 18 22 18 3 29 -11 6 -29 10
-39 9 -17 -2 -20 5 -23 46 -3 45 -2 47 22 47 21 0 26 5 26 25 0 20 -5 25 -25
25 -22 0 -25 4 -25 40 0 36 -2 40 -25 40 -22 0 -25 -4 -25 -40z"/>
<path d="M1570 192 c0 -5 -22 -7 -48 -4 -45 4 -50 2 -75 -28 -33 -38 -35 -87
-7 -123 24 -30 78 -44 109 -28 14 8 21 8 21 1 0 -5 11 -10 25 -10 l26 0 -3 98
c-3 92 -4 97 -25 100 -13 2 -23 -1 -23 -6z m-20 -73 c9 -16 8 -26 -5 -45 -17
-27 -27 -29 -56 -14 -21 12 -25 50 -7 68 19 19 56 14 68 -9z"/>
<path d="M1956 191 c-3 -5 -25 -6 -48 -4 -54 6 -94 -22 -104 -71 -13 -70 54
-132 117 -109 16 6 29 7 29 2 0 -5 11 -9 25 -9 l25 0 0 100 c0 92 -1 100 -19
100 -11 0 -22 -4 -25 -9z m-26 -66 c15 -19 6 -61 -16 -69 -27 -10 -53 3 -60
30 -8 30 11 54 41 54 12 0 28 -7 35 -15z"/>
</g>
</svg>
