<svg version="1.1" id="Layer_1" xmlns="http://www.w3.org/2000/svg" xmlns:xlink="http://www.w3.org/1999/xlink" x="0px" y="0px"
	 width="100%" viewBox="0 0 999 219" enable-background="new 0 0 999 219" xml:space="preserve">

<path opacity="1.000000" stroke="none" 
	d="
M151.000000,1.000000 
	C160.687561,1.000000 170.375122,1.000000 180.235321,1.333569 
	C182.845993,2.765633 185.208527,4.092430 187.733734,4.927173 
	C211.913040,12.920025 225.652954,36.638580 225.850220,59.295826 
	C226.316620,112.860260 226.000000,166.431503 226.000000,220.000000 
	C205.979111,220.000000 185.958206,220.000000 165.468658,219.531342 
	C165.000000,170.118301 164.931320,121.173714 165.071365,72.229736 
	C165.093307,64.570259 159.021729,60.020485 154.429245,60.041637 
	C148.692810,60.068054 143.768066,65.887268 143.811432,72.169205 
	C144.151611,121.444221 144.000000,170.722626 144.000000,220.000000 
	C123.979103,220.000000 103.958214,220.000000 83.468658,219.531342 
	C83.000000,171.616394 83.016441,124.170082 82.957489,76.723869 
	C82.954094,73.994949 82.493027,71.236412 81.970619,68.544907 
	C81.019539,63.644814 75.808464,59.542591 71.392624,60.009617 
	C66.376030,60.540184 62.001804,65.454483 62.001541,70.585983 
	C61.998970,120.390656 62.000000,170.195328 62.000000,220.000000 
	C41.704418,220.000000 21.408838,220.000000 1.000000,220.000000 
	C1.000000,161.979156 1.000000,103.958237 1.397132,45.464737 
	C3.206605,41.566372 4.326278,37.982033 6.081570,34.742046 
	C13.997417,20.130653 24.860210,8.820982 41.326202,3.880359 
	C42.713943,3.463966 43.782928,1.985205 45.000000,1.000000 
	C54.687561,1.000000 64.375122,1.000000 74.234894,1.336211 
	C74.741585,2.038224 75.018639,2.637862 75.418808,2.736139 
	C91.823631,6.764982 103.859383,16.576271 112.732239,31.031290 
	C113.647942,30.044893 114.514389,29.211611 115.265327,28.284739 
	C118.024467,24.879126 120.482674,21.185390 123.533249,18.069094 
	C130.656143,10.792734 139.320908,5.958532 149.046631,2.960052 
	C149.825180,2.720023 150.354736,1.672353 151.000000,1.000000 
z"/>
<path opacity="1.000000" stroke="none" 
	d="
M516.531372,0.999999 
	C517.484192,1.664220 517.856995,2.776026 518.468567,2.928143 
	C542.840027,8.989957 559.960754,24.089762 571.331909,45.940472 
	C576.443542,55.762871 578.962646,66.517036 578.976013,77.670082 
	C579.032532,124.800888 579.000000,171.931808 579.000000,219.531342 
	C558.979126,220.000000 538.958191,220.000000 518.468628,219.531342 
	C518.000000,200.833633 518.000000,182.604568 518.000000,164.344437 
	C504.087982,164.344437 490.593658,164.344437 477.000000,164.344437 
	C477.000000,183.125809 477.000000,201.562897 477.000000,220.000000 
	C456.979095,220.000000 436.958221,220.000000 416.468658,219.531342 
	C416.000000,174.934326 415.962830,130.805893 416.044250,86.677681 
	C416.055145,80.767509 416.539276,74.848114 417.022003,68.950821 
	C418.400818,52.107296 426.256439,38.147598 437.501831,26.174904 
	C448.784393,14.162605 462.395966,5.693448 479.031647,2.889774 
	C479.448761,2.819479 479.681366,1.654463 480.000000,1.000003 
	C492.020905,1.000000 504.041779,1.000000 516.531372,0.999999 
M509.458221,107.000000 
	C512.230286,107.000000 515.002319,107.000000 518.000000,107.000000 
	C518.000000,97.987434 517.814453,89.512566 518.048035,81.049263 
	C518.325989,70.977608 510.439819,61.678448 500.512482,60.150089 
	C491.218384,58.719231 480.146851,64.062271 478.278259,74.845726 
	C476.473114,85.262932 477.039581,96.091087 476.552582,107.000000 
	C487.859131,107.000000 498.162750,107.000000 509.458221,107.000000 
z"/>
<path opacity="1.000000" stroke="none" 
	d="
M305.468658,220.000000 
	C303.610352,219.006775 302.341034,217.423401 300.812378,217.111679 
	C285.643555,214.018143 273.234558,205.898148 262.793060,195.072296 
	C250.789474,182.626831 243.213852,167.817657 240.835037,150.246063 
	C238.025635,129.493729 241.698502,110.156334 253.579697,93.286026 
	C265.795929,75.939987 282.544983,64.322800 303.931213,59.915550 
	C326.667175,55.230148 348.191864,58.211094 367.194489,71.279816 
	C384.034821,82.861511 396.314362,98.682159 400.940216,119.248543 
	C405.282928,138.556061 404.029999,157.594910 394.832214,175.251694 
	C384.295868,195.478195 367.760681,209.277802 345.988647,216.502106 
	C342.531250,217.649323 338.933899,218.374802 335.700623,219.647644 
	C325.979095,220.000000 315.958221,220.000000 305.468658,220.000000 
M340.050781,127.512619 
	C335.557098,119.856491 326.380157,114.636230 319.823029,116.032883 
	C305.765930,119.027016 298.825104,129.138428 299.938446,142.289749 
	C300.776550,152.189865 313.109924,163.506119 322.462555,161.924973 
	C337.973755,159.302643 348.310272,145.546097 340.050781,127.512619 
z"/>
<path opacity="1.000000" stroke="none" 
	d="
M638.466858,220.000000 
	C637.515503,219.335693 637.136658,218.213196 636.531067,218.073471 
	C616.684875,213.494705 604.813843,200.618973 600.307922,181.392349 
	C594.200562,155.332306 610.136963,128.333664 638.146423,123.248901 
	C650.339111,121.035469 662.480957,123.560242 673.639771,131.528763 
	C673.639771,110.491470 673.639771,90.030945 673.639771,69.287262 
	C682.282410,69.287262 690.353760,69.287262 698.767151,69.287262 
	C698.840271,70.299171 698.989685,71.403214 698.989990,72.507286 
	C699.001587,119.990288 699.005920,167.473297 698.970825,214.956284 
	C698.969788,216.382309 698.537415,217.808014 698.653076,219.616943 
	C690.979065,220.000000 682.958191,220.000000 674.807861,219.634567 
	C674.319458,216.571747 673.960449,213.874359 673.597351,211.146606 
	C673.081848,211.101990 672.518372,210.880325 672.108276,211.043762 
	C666.221802,213.389832 660.345764,215.763458 654.510559,218.232712 
	C654.154785,218.383270 654.161743,219.391068 654.000000,220.000000 
	C648.977905,220.000000 643.955811,220.000000 638.466858,220.000000 
M642.913635,192.998825 
	C657.781006,195.449402 671.092957,179.794022 667.069519,165.275146 
	C664.130615,154.669586 653.380676,145.923065 641.465454,149.032028 
	C627.292725,152.730011 620.818481,167.126373 626.550232,180.086136 
	C629.593445,186.966995 635.070557,190.854919 642.913635,192.998825 
z"/>
<path opacity="1.000000" stroke="none" 
	d="
M749.466125,220.000000 
	C748.515259,219.336670 748.121887,218.191818 747.532410,218.079834 
	C728.466980,214.458633 716.655945,202.287704 711.513733,184.548737 
	C706.417114,166.967194 710.003418,150.059448 723.075867,136.641663 
	C738.756042,120.547218 763.062073,117.833046 783.674683,131.276611 
	C783.674683,128.147430 783.674683,125.329926 783.674683,122.256218 
	C792.301697,122.256218 800.378662,122.256218 808.778015,122.256218 
	C808.849487,122.996178 808.989502,123.772110 808.989807,124.548088 
	C809.001099,154.851608 809.008179,185.155136 808.970703,215.458603 
	C808.969177,216.717285 808.537415,217.975464 808.653076,219.616943 
	C800.979065,220.000000 792.958191,220.000000 784.806641,219.636902 
	C784.320374,216.588852 783.964722,213.903870 783.647400,211.508011 
	C777.153687,213.828217 770.620300,216.150055 764.115234,218.548615 
	C763.924377,218.618958 764.031677,219.498016 764.000000,220.000000 
	C759.310730,220.000000 754.621521,220.000000 749.466125,220.000000 
M758.940369,148.423691 
	C746.671997,146.727448 733.962158,158.731796 734.871704,171.090546 
	C735.537537,180.138733 741.421570,189.815430 748.910095,191.956573 
	C760.404236,195.242966 769.137390,190.761612 774.385010,183.023026 
	C783.317078,169.851028 774.849182,150.657318 758.940369,148.423691 
z"/>
<path opacity="1.000000" stroke="none" 
	d="
M940.466125,219.999985 
	C939.356384,219.333755 938.785339,218.181122 938.058472,218.072632 
	C921.068176,215.536789 905.120300,199.034500 901.972168,181.745056 
	C899.460144,167.948669 900.680176,154.827499 909.029968,143.144302 
	C918.100586,130.452377 930.202148,123.264694 946.230652,122.902245 
	C956.178284,122.677299 965.162903,124.755928 973.219788,130.669464 
	C973.782898,131.082748 974.795410,130.883591 975.931580,131.004623 
	C975.931580,128.041229 975.931580,125.272697 975.931580,122.000000 
	C983.844482,122.000000 991.453613,122.000000 999.531372,122.000000 
	C1000.000000,154.549072 1000.000000,187.098145 1000.000000,220.000000 
	C992.316040,220.000000 984.626709,220.000000 976.809082,219.634430 
	C976.302246,216.184067 975.923706,213.099243 975.664673,210.988388 
	C969.118774,213.377518 962.759094,215.656799 956.449036,218.065903 
	C955.812622,218.308853 955.475830,219.336502 955.000000,220.000000 
	C950.310730,220.000000 945.621521,220.000000 940.466125,219.999985 
M956.198730,190.981964 
	C958.360840,189.589737 960.932190,188.573349 962.614929,186.740875 
	C970.373535,178.291824 971.775818,167.365143 964.491150,157.207260 
	C959.446960,150.173599 948.862427,144.519547 937.490845,151.158737 
	C927.386230,157.058258 922.443420,167.591873 928.165039,180.892715 
	C932.203247,190.280136 944.601196,196.501068 956.198730,190.981964 
z"/>
<path opacity="1.000000" stroke="none" 
	d="
M861.467590,220.000000 
	C860.518860,219.333786 860.155518,218.231689 859.539429,218.065262 
	C845.190491,214.188889 836.005798,198.819748 836.000854,184.168747 
	C835.996643,171.675446 836.000000,159.182144 836.000000,146.288788 
	C830.839111,146.288788 825.758423,146.288788 820.339722,146.288788 
	C820.339722,138.161148 820.339722,130.418060 820.339722,122.271927 
	C825.181152,122.271927 830.259644,122.271927 835.737732,122.271927 
	C835.737732,107.806786 835.737732,93.729843 835.737732,79.010239 
	C843.877136,79.010239 851.640259,78.860588 859.381348,79.205681 
	C860.315369,79.247314 861.861206,81.953171 861.884949,83.443924 
	C862.086121,96.090118 861.999939,108.740875 861.999939,121.790619 
	C870.578064,121.790619 878.990723,121.790619 887.699097,121.790619 
	C887.699097,129.922318 887.699097,137.662903 887.699097,146.000031 
	C880.384094,146.000031 872.948425,146.153580 865.524109,145.929306 
	C862.260254,145.830734 861.040161,147.314453 861.025635,150.147766 
	C860.967468,161.480637 860.721008,172.824570 861.146118,184.141785 
	C861.308594,188.467773 863.027466,192.964966 868.389954,193.698242 
	C872.747681,194.294113 875.671021,191.840057 877.771240,187.493134 
	C885.194275,191.152344 892.503357,194.755402 900.324036,198.610626 
	C897.170532,207.542603 890.705322,213.069397 882.523438,216.993469 
	C880.831787,217.804794 879.115906,218.565735 877.705627,219.674957 
	C872.645081,220.000000 867.290100,220.000000 861.467590,220.000000 
z"/>
</svg>