<svg xmlns="http://www.w3.org/2000/svg" xmlns:xlink="http://www.w3.org/1999/xlink" width="300" zoomAndPan="magnify" viewBox="0 0 224.87999 225" height="300" preserveAspectRatio="xMidYMid meet" version="1.0"><defs><g/><clipPath id="id1"><path d="M 65 111 L 86 111 L 86 202.398438 L 65 202.398438 Z M 65 111 " clip-rule="nonzero"/></clipPath><clipPath id="id2"><path d="M 89 130 L 109 130 L 109 202.398438 L 89 202.398438 Z M 89 130 " clip-rule="nonzero"/></clipPath><clipPath id="id3"><path d="M 42.171875 133 L 62 133 L 62 202.398438 L 42.171875 202.398438 Z M 42.171875 133 " clip-rule="nonzero"/></clipPath><clipPath id="id4"><path d="M 112 155 L 132 155 L 132 202.398438 L 112 202.398438 Z M 112 155 " clip-rule="nonzero"/></clipPath><clipPath id="id5"><path d="M 135 143 L 156 143 L 156 202.398438 L 135 202.398438 Z M 135 143 " clip-rule="nonzero"/></clipPath><clipPath id="id6"><path d="M 49 86.960938 L 182 86.960938 L 182 191 L 49 191 Z M 49 86.960938 " clip-rule="nonzero"/></clipPath></defs><g clip-path="url(#id1)"><path fill="#686aec" d="M 68.386719 114.160156 C 68.328125 114.160156 68.277344 114.210938 68.277344 114.265625 L 68.277344 199.636719 C 68.277344 199.691406 68.328125 199.746094 68.386719 199.746094 L 82.300781 199.746094 C 82.355469 199.746094 82.40625 199.691406 82.40625 199.636719 L 82.40625 114.265625 C 82.40625 114.210938 82.355469 114.160156 82.300781 114.160156 Z M 82.300781 202.398438 L 68.386719 202.398438 C 66.867188 202.398438 65.628906 201.15625 65.628906 199.636719 L 65.628906 114.265625 C 65.628906 112.746094 66.867188 111.507812 68.386719 111.507812 L 82.300781 111.507812 C 83.816406 111.507812 85.054688 112.746094 85.054688 114.265625 L 85.054688 199.636719 C 85.054688 201.15625 83.816406 202.398438 82.300781 202.398438 " fill-opacity="1" fill-rule="nonzero"/></g><g clip-path="url(#id2)"><path fill="#686aec" d="M 91.691406 199.746094 L 105.820312 199.746094 L 105.820312 133.570312 L 91.691406 133.570312 Z M 105.996094 202.398438 L 91.515625 202.398438 C 90.152344 202.398438 89.046875 201.285156 89.046875 199.921875 L 89.046875 133.394531 C 89.046875 132.03125 90.152344 130.917969 91.515625 130.917969 L 105.996094 130.917969 C 107.359375 130.917969 108.464844 132.03125 108.464844 133.394531 L 108.464844 199.921875 C 108.464844 201.285156 107.359375 202.398438 105.996094 202.398438 " fill-opacity="1" fill-rule="nonzero"/></g><g clip-path="url(#id3)"><path fill="#686aec" d="M 44.863281 199.746094 L 58.988281 199.746094 L 58.988281 136.082031 L 44.863281 136.082031 Z M 59.167969 202.398438 L 44.683594 202.398438 C 43.320312 202.398438 42.214844 201.285156 42.214844 199.921875 L 42.214844 135.90625 C 42.214844 134.542969 43.320312 133.429688 44.683594 133.429688 L 59.167969 133.429688 C 60.527344 133.429688 61.636719 134.542969 61.636719 135.90625 L 61.636719 199.921875 C 61.636719 201.285156 60.527344 202.398438 59.167969 202.398438 " fill-opacity="1" fill-rule="nonzero"/></g><g clip-path="url(#id4)"><path fill="#686aec" d="M 115.097656 199.746094 L 129.226562 199.746094 L 129.226562 157.765625 L 115.097656 157.765625 Z M 129.53125 202.398438 L 114.789062 202.398438 C 113.496094 202.398438 112.449219 201.34375 112.449219 200.054688 L 112.449219 157.460938 C 112.449219 156.167969 113.496094 155.113281 114.789062 155.113281 L 129.53125 155.113281 C 130.824219 155.113281 131.875 156.167969 131.875 157.460938 L 131.875 200.054688 C 131.875 201.34375 130.824219 202.398438 129.53125 202.398438 " fill-opacity="1" fill-rule="nonzero"/></g><g clip-path="url(#id5)"><path fill="#686aec" d="M 152.828125 202.398438 L 138.347656 202.398438 C 136.984375 202.398438 135.878906 201.285156 135.878906 199.921875 L 135.878906 144.597656 C 135.878906 143.867188 136.46875 143.273438 137.203125 143.273438 C 137.933594 143.273438 138.527344 143.867188 138.527344 144.597656 L 138.527344 199.746094 L 152.648438 199.746094 L 152.648438 155.292969 C 152.648438 154.558594 153.242188 153.964844 153.972656 153.964844 C 154.707031 153.964844 155.296875 154.558594 155.296875 155.292969 L 155.296875 199.921875 C 155.296875 201.285156 154.191406 202.398438 152.828125 202.398438 " fill-opacity="1" fill-rule="nonzero"/></g><path fill="#22a1e2" d="M 145.464844 138.585938 C 140.164062 138.585938 135.402344 135.640625 133.027344 130.902344 C 129.589844 124.035156 132.367188 115.644531 139.214844 112.199219 C 141.171875 111.214844 143.265625 110.714844 145.441406 110.714844 C 150.738281 110.714844 155.503906 113.660156 157.878906 118.402344 C 161.316406 125.265625 158.539062 133.652344 151.691406 137.101562 C 149.730469 138.085938 147.636719 138.585938 145.464844 138.585938 Z M 160.246094 117.210938 C 157.417969 111.566406 151.742188 108.0625 145.441406 108.0625 C 142.851562 108.0625 140.359375 108.65625 138.03125 109.828125 C 129.875 113.929688 126.570312 123.917969 130.664062 132.089844 C 133.488281 137.734375 139.160156 141.238281 145.464844 141.238281 C 148.054688 141.238281 150.546875 140.640625 152.878906 139.472656 C 161.03125 135.367188 164.335938 125.382812 160.246094 117.210938 " fill-opacity="1" fill-rule="nonzero"/><g clip-path="url(#id6)"><path fill="#22a1e2" d="M 178.101562 186.820312 L 175.511719 188.121094 C 175.28125 188.242188 175.027344 188.300781 174.769531 188.300781 C 174.132812 188.300781 173.542969 187.9375 173.261719 187.375 L 158.339844 157.585938 C 157.925781 156.757812 158.261719 155.746094 159.085938 155.332031 L 161.675781 154.027344 C 161.90625 153.910156 162.160156 153.851562 162.417969 153.851562 C 163.054688 153.851562 163.648438 154.214844 163.929688 154.777344 L 178.847656 184.566406 C 179.265625 185.394531 178.929688 186.40625 178.101562 186.820312 Z M 154.121094 152.777344 L 154.015625 152.5625 C 153.597656 151.734375 153.9375 150.71875 154.761719 150.304688 L 160.242188 147.550781 C 160.472656 147.429688 160.722656 147.375 160.984375 147.375 C 161.621094 147.375 162.210938 147.734375 162.492188 148.296875 L 162.601562 148.511719 C 162.800781 148.910156 162.832031 149.363281 162.691406 149.792969 C 162.550781 150.222656 162.25 150.566406 161.855469 150.769531 L 156.375 153.523438 C 156.140625 153.640625 155.890625 153.699219 155.628906 153.699219 C 154.996094 153.699219 154.402344 153.335938 154.121094 152.777344 Z M 155.628906 144.96875 C 155.667969 144.945312 155.707031 144.925781 155.742188 144.90625 L 156.65625 144.445312 L 157.347656 145.828125 L 155.113281 146.949219 L 154.421875 145.570312 L 155.527344 145.011719 C 155.5625 144.996094 155.597656 144.984375 155.628906 144.96875 Z M 127.546875 133.65625 C 122.59375 123.761719 126.589844 111.667969 136.464844 106.703125 C 139.285156 105.289062 142.300781 104.566406 145.433594 104.566406 C 153.066406 104.566406 159.9375 108.808594 163.359375 115.644531 C 165.761719 120.4375 166.15625 125.878906 164.46875 130.972656 C 162.804688 136.011719 159.292969 140.105469 154.582031 142.519531 L 154.320312 142.652344 C 151.535156 144.03125 148.558594 144.734375 145.472656 144.734375 C 137.835938 144.734375 130.96875 140.488281 127.546875 133.65625 Z M 181.210938 183.375 L 166.292969 153.585938 C 165.910156 152.820312 165.320312 152.207031 164.613281 151.792969 C 164.863281 151.445312 165.0625 151.050781 165.203125 150.625 C 165.566406 149.527344 165.480469 148.351562 164.964844 147.324219 L 164.859375 147.109375 C 164.121094 145.632812 162.636719 144.722656 160.984375 144.722656 C 160.597656 144.722656 160.210938 144.78125 159.835938 144.882812 L 158.878906 142.972656 C 162.65625 140.203125 165.480469 136.347656 166.984375 131.804688 C 168.890625 126.042969 168.441406 119.878906 165.722656 114.453125 C 161.851562 106.71875 154.078125 101.914062 145.433594 101.914062 C 141.886719 101.914062 138.46875 102.726562 135.277344 104.332031 C 124.101562 109.953125 119.570312 123.644531 125.179688 134.847656 C 125.460938 135.410156 125.769531 135.953125 126.09375 136.484375 L 121.542969 144.574219 L 112.363281 122.113281 C 112.160156 121.617188 111.675781 121.292969 111.136719 121.292969 L 100.105469 121.292969 L 76.460938 87.527344 C 76.230469 87.195312 75.863281 86.988281 75.464844 86.964844 C 75.058594 86.9375 74.675781 87.09375 74.402344 87.390625 L 50.0625 113.890625 C 49.566406 114.429688 49.601562 115.265625 50.140625 115.761719 C 50.679688 116.257812 51.515625 116.226562 52.011719 115.683594 L 75.238281 90.394531 L 98.335938 123.378906 C 98.582031 123.734375 98.988281 123.945312 99.417969 123.945312 L 110.25 123.945312 L 120.128906 148.113281 C 120.324219 148.585938 120.765625 148.902344 121.273438 148.933594 C 121.300781 148.9375 121.328125 148.9375 121.355469 148.9375 C 121.828125 148.9375 122.273438 148.679688 122.507812 148.261719 L 127.773438 138.902344 C 132.023438 144.222656 138.460938 147.386719 145.472656 147.386719 C 147.671875 147.386719 149.824219 147.070312 151.898438 146.449219 L 152.867188 148.382812 C 151.265625 149.625 150.707031 151.871094 151.648438 153.75 L 151.757812 153.964844 C 152.480469 155.414062 153.929688 156.316406 155.546875 156.347656 C 155.453125 157.15625 155.585938 157.996094 155.972656 158.777344 L 170.894531 188.5625 C 171.632812 190.039062 173.117188 190.953125 174.769531 190.953125 C 175.4375 190.953125 176.105469 190.792969 176.699219 190.496094 L 179.289062 189.191406 C 181.417969 188.117188 182.285156 185.511719 181.210938 183.375 " fill-opacity="1" fill-rule="nonzero"/></g><g fill="#000000" fill-opacity="1"><g transform="translate(8.961854, 67.308774)"><g><path d="M 18.113281 -22.738281 L 14.878906 -22.738281 L 14.878906 -14.035156 L 9.820312 -14.035156 L 9.820312 -11.289062 L 14.878906 -11.289062 L 14.878906 2.828125 L 18.113281 2.828125 Z M 23.769531 -22.875 L 20.507812 -22.875 L 20.507812 3.699219 L 23.769531 3.699219 Z M 13.164062 -6.363281 C 9.683594 -6.066406 7.777344 -6.039062 5.386719 -6.039062 L 5.386719 -18.167969 L 11.53125 -18.167969 L 11.53125 -20.78125 L 2.011719 -20.78125 L 2.011719 -3.265625 C 5.058594 -3.265625 9.875 -3.265625 13.164062 -3.726562 Z M 13.164062 -6.363281 "/></g></g></g><g fill="#000000" fill-opacity="1"><g transform="translate(34.253563, 67.308774)"><g><path d="M 16.429688 -12.023438 C 16.429688 -18.359375 13.761719 -21.488281 9.191406 -21.488281 C 4.757812 -21.488281 1.875 -18.386719 1.875 -12.023438 C 1.875 -5.875 4.757812 -2.582031 9.191406 -2.582031 C 13.789062 -2.582031 16.429688 -5.875 16.429688 -12.023438 Z M 23.253906 -22.875 L 19.910156 -22.875 L 19.910156 3.699219 L 23.253906 3.699219 Z M 13.109375 -12.050781 C 13.109375 -7.996094 11.914062 -5.277344 9.21875 -5.277344 C 6.5 -5.277344 5.222656 -7.996094 5.222656 -12.050781 C 5.222656 -16.320312 6.472656 -18.820312 9.21875 -18.820312 C 11.886719 -18.820312 13.109375 -16.265625 13.109375 -12.050781 Z M 13.109375 -12.050781 "/></g></g></g><g fill="#000000" fill-opacity="1"><g transform="translate(59.545272, 67.308774)"><g><path d="M 17.324219 -6.121094 C 13.027344 -5.519531 9.925781 -5.492188 6.011719 -5.492188 L 6.011719 -10.988281 L 14.007812 -10.988281 L 14.007812 -13.597656 L 6.011719 -13.597656 L 6.011719 -18.578125 L 15.148438 -18.578125 L 15.148438 -21.1875 L 2.691406 -21.1875 L 2.691406 -2.746094 C 8.539062 -2.746094 12.511719 -2.746094 17.324219 -3.480469 Z M 23.335938 -22.875 L 20.019531 -22.875 L 20.019531 -14.171875 L 15.558594 -14.171875 L 15.558594 -11.476562 L 20.019531 -11.476562 L 20.019531 3.699219 L 23.335938 3.699219 Z M 23.335938 -22.875 "/></g></g></g><g fill="#000000" fill-opacity="1"><g transform="translate(84.836983, 67.308774)"><g><path d="M 1.550781 -20.941406 L 1.550781 -18.277344 L 10.769531 -18.277344 C 10.605469 -11.832031 7.453125 -7.722656 0.488281 -3.917969 L 2.582031 -1.632812 C 9.410156 -5.332031 14.171875 -10.226562 14.277344 -20.941406 Z M 18.441406 -22.875 L 18.441406 3.699219 L 21.785156 3.699219 L 21.785156 -10.226562 L 26.328125 -10.226562 L 26.328125 -12.945312 L 21.785156 -12.945312 L 21.785156 -22.875 Z M 18.441406 -22.875 "/></g></g></g><g fill="#000000" fill-opacity="1"><g transform="translate(110.12869, 67.308774)"><g/></g></g><g fill="#000000" fill-opacity="1"><g transform="translate(116.927406, 67.308774)"><g><path d="M 14.46875 -7.75 L 11.316406 -7.75 L 11.316406 -4.515625 L 7.5625 -4.515625 L 7.5625 -7.75 L 4.269531 -7.75 L 4.269531 3.507812 L 14.46875 3.507812 L 14.46875 2.09375 L 16.074219 3.972656 C 18.003906 2.609375 19.148438 1.25 20.046875 -0.164062 C 21.078125 1.523438 22.519531 3.019531 24.097656 3.890625 L 25.894531 1.742188 C 22.902344 0.0820312 21.648438 -2.230469 21.648438 -5.085938 L 21.648438 -7.804688 L 18.414062 -7.804688 L 18.414062 -5.085938 C 18.414062 -2.339844 17.324219 -0.273438 14.46875 1.550781 Z M 8.703125 -22.410156 C 4.324219 -22.410156 1.386719 -19.582031 1.386719 -16.019531 C 1.386719 -12.539062 4.269531 -9.628906 8.703125 -9.628906 C 13.109375 -9.628906 15.964844 -12.539062 15.964844 -16.019531 C 15.964844 -19.554688 13.054688 -22.410156 8.703125 -22.410156 Z M 23.363281 -22.875 L 20.046875 -22.875 L 20.046875 -17.433594 L 16.535156 -17.433594 L 16.535156 -14.824219 L 20.046875 -14.824219 L 20.046875 -9.273438 L 23.363281 -9.273438 Z M 12.703125 -16.019531 C 12.703125 -13.953125 11.125 -12.292969 8.703125 -12.292969 C 6.066406 -12.292969 4.625 -13.980469 4.625 -16.019531 C 4.625 -18.140625 6.066406 -19.746094 8.703125 -19.746094 C 11.125 -19.746094 12.703125 -18.140625 12.703125 -16.019531 Z M 7.5625 0.925781 L 7.5625 -1.875 L 11.316406 -1.875 L 11.316406 0.925781 Z M 7.5625 0.925781 "/></g></g></g><g fill="#000000" fill-opacity="1"><g transform="translate(142.219113, 67.308774)"><g><path d="M 25.921875 -11.75 L 0.597656 -11.75 L 0.597656 -9.113281 L 25.921875 -9.113281 Z M 22.628906 -7.453125 L 19.285156 -7.453125 L 19.285156 -4.105469 L 7.34375 -4.105469 L 7.34375 -7.453125 L 4 -7.453125 L 4 3.507812 L 22.628906 3.507812 Z M 7.34375 0.925781 L 7.34375 -1.550781 L 19.285156 -1.550781 L 19.285156 0.925781 Z M 4 -13 C 7.859375 -13.980469 11.421875 -15.53125 13.21875 -17.816406 C 15.039062 -15.394531 18.847656 -13.953125 22.601562 -13 L 24.261719 -15.339844 C 20.34375 -16.074219 15.066406 -18.304688 15.066406 -21.160156 L 15.066406 -22.847656 L 11.585938 -22.847656 L 11.585938 -21.160156 C 11.585938 -18.304688 6.011719 -16.046875 2.367188 -15.367188 Z M 4 -13 "/></g></g></g><g fill="#000000" fill-opacity="1"><g transform="translate(167.510828, 67.308774)"><g><path d="M 23.144531 -22.875 L 19.800781 -22.875 L 19.800781 3.699219 L 23.144531 3.699219 Z M 17.976562 -6.910156 C 13.898438 -6.363281 10.742188 -6.28125 6.363281 -6.28125 L 6.363281 -21.214844 L 3.046875 -21.214844 L 3.046875 -3.5625 C 7.5625 -3.5625 13.027344 -3.5625 17.976562 -4.214844 Z M 17.976562 -6.910156 "/></g></g></g><g fill="#000000" fill-opacity="1"><g transform="translate(192.802535, 67.308774)"><g><path d="M 16.671875 -6.527344 C 12.375 -5.957031 8.8125 -5.929688 4.839844 -5.929688 L 4.839844 -18.277344 L 14.414062 -18.277344 L 14.414062 -20.96875 L 1.523438 -20.96875 L 1.523438 -3.183594 C 7.34375 -3.183594 11.804688 -3.183594 16.671875 -3.808594 Z M 26.300781 -14.117188 L 21.757812 -14.117188 L 21.757812 -22.875 L 18.414062 -22.875 L 18.414062 3.699219 L 21.757812 3.699219 L 21.757812 -11.421875 L 26.300781 -11.421875 Z M 26.300781 -14.117188 "/></g></g></g></svg>